<svg width="193" height="55" viewBox="0 0 193 55" fill="none" xmlns="http://www.w3.org/2000/svg">
<g clip-path="url(#clip0_103_5)">
<circle cx="27.5" cy="27.5" r="27.5" fill="url(#paint0_linear_103_5)"/>
<path d="M40.268 24.8276C42.268 25.9823 42.268 28.8691 40.268 30.0238L23.2545 39.8465C21.2545 41.0012 18.7545 39.5578 18.7545 37.2484L18.7545 17.6029C18.7545 15.2935 21.2545 13.8502 23.2545 15.0049L40.268 24.8276Z" fill="white"/>
<path d="M87.5684 14.6621H96.5498C98.5752 14.6621 100.119 14.8171 101.182 15.127C102.609 15.5475 103.832 16.2946 104.851 17.3682C105.869 18.4417 106.644 19.7588 107.175 21.3193C107.706 22.8688 107.972 24.7835 107.972 27.0635C107.972 29.0667 107.723 30.7933 107.225 32.2432C106.616 34.014 105.747 35.4473 104.618 36.543C103.766 37.373 102.615 38.0205 101.165 38.4854C100.08 38.8285 98.6305 39 96.8154 39H87.5684V14.6621ZM92.4824 18.7793V34.8994H96.1514C97.5238 34.8994 98.5143 34.8219 99.123 34.667C99.9199 34.4678 100.578 34.1302 101.099 33.6543C101.63 33.1784 102.062 32.3981 102.394 31.3135C102.726 30.2178 102.892 28.7292 102.892 26.8477C102.892 24.9661 102.726 23.5218 102.394 22.5146C102.062 21.5075 101.597 20.7217 100.999 20.1572C100.401 19.5928 99.6432 19.2109 98.7246 19.0117C98.0384 18.8568 96.6937 18.7793 94.6904 18.7793H92.4824ZM120.938 14.6621H125.835V30.0684C125.835 32.0827 125.658 33.6322 125.304 34.7168C124.828 36.1335 123.965 37.2734 122.714 38.1367C121.463 38.9889 119.814 39.415 117.767 39.415C115.365 39.415 113.517 38.7454 112.222 37.4062C110.927 36.056 110.274 34.0804 110.263 31.4795L114.895 30.9482C114.95 32.3428 115.155 33.3278 115.509 33.9033C116.04 34.7777 116.848 35.2148 117.933 35.2148C119.028 35.2148 119.803 34.9049 120.257 34.2852C120.711 33.6543 120.938 32.3538 120.938 30.3838V14.6621ZM140.395 39V14.6621H145.309V39H140.395ZM150.14 39V14.8613H155.054V34.8994H167.272V39H150.14ZM170.775 14.6621H179.757C181.782 14.6621 183.326 14.8171 184.389 15.127C185.816 15.5475 187.039 16.2946 188.058 17.3682C189.076 18.4417 189.851 19.7588 190.382 21.3193C190.913 22.8688 191.179 24.7835 191.179 27.0635C191.179 29.0667 190.93 30.7933 190.432 32.2432C189.823 34.014 188.954 35.4473 187.825 36.543C186.973 37.373 185.822 38.0205 184.372 38.4854C183.287 38.8285 181.838 39 180.022 39H170.775V14.6621ZM175.689 18.7793V34.8994H179.358C180.731 34.8994 181.721 34.8219 182.33 34.667C183.127 34.4678 183.785 34.1302 184.306 33.6543C184.837 33.1784 185.269 32.3981 185.601 31.3135C185.933 30.2178 186.099 28.7292 186.099 26.8477C186.099 24.9661 185.933 23.5218 185.601 22.5146C185.269 21.5075 184.804 20.7217 184.206 20.1572C183.608 19.5928 182.85 19.2109 181.932 19.0117C181.245 18.8568 179.901 18.7793 177.897 18.7793H175.689Z" fill="#F0F0F0"/>
</g>
<defs>
<linearGradient id="paint0_linear_103_5" x1="8.42343" y1="8.67117" x2="51.036" y2="49.7973" gradientUnits="userSpaceOnUse">
<stop stop-color="#0D477C"/>
<stop offset="1" stop-color="#3D8EDA"/>
</linearGradient>
<clipPath id="clip0_103_5">
<rect width="193" height="55" fill="white"/>
</clipPath>
</defs>
</svg>
